<?xml version="1.0" encoding="utf-8"?>
<!-- Generator: Adobe Illustrator 23.0.3, SVG Export Plug-In . SVG Version: 6.00 Build 0)  -->
<svg version="1.1" id="Layer_1" xmlns="http://www.w3.org/2000/svg" xmlns:xlink="http://www.w3.org/1999/xlink" x="0px" y="0px"
	 viewBox="0 0 1446.1 329.5" style="enable-background:new 0 0 1446.1 329.5;" xml:space="preserve">
<style type="text/css">
	.st0{fill:#020203;}
</style>
<g>
	<path class="st0" d="M210.7,319.8c-2.8,0-4.4-5.6-4.4-106.9c0-25-14.3-40.6-46.9-40.6c-31,0-52.9,19.5-52.9,40.9l0,106.6l-101,0
		l0-218.7l97.4,0l0,38.2c16.7-31.8,59-44.5,103.1-44.5c74.3,0,101.6,42.5,101.6,99.4c0,122.9,1.2,122.1,3.2,125.6H210.7z"/>
	<polygon class="st0" points="884.8,319.8 766.3,319.8 649.8,101.1 757.2,101.1 826.3,243.4 894.7,101.1 998.9,101.1 	"/>
	<path class="st0" d="M1205.9,168.7c-9.9-8.7-29.8-15.5-56.9-15.5c-27,0-48.9,6.8-58.8,16.7c-5.2,5.2-8.7,11.9-9.5,17.1l134.4,0
		C1215,181.4,1212.2,174.3,1205.9,168.7 M1297.3,276.4c-21.1,26.2-68.4,47.7-147.9,47.7c-66.8,0-118.5-14.7-146.3-48.1
		c-15.1-18.3-22.7-39.8-22.7-66.8c0-24.6,8-46.9,23.5-64.4c28.6-33.4,81.5-50.9,146.3-50.9c87.1,0,143.5,33.8,159,87.5
		c4.4,12.7,7.2,36.2,6,51.3l-235,0c1.2,6.8,4.8,12.7,11.9,18.7c10.7,9.5,31.8,15.1,58.4,15.1c20.7,0,38.6-4,48.1-9.1
		c5.6-2.8,10.3-7.2,12.3-10.7l102.2,0C1311.2,256.2,1305.6,266.5,1297.3,276.4"/>
	<path class="st0" d="M1446.1,319.8l-102.2,0c-2.4-1.2-2.4-8-2.4-27.8l0-254.8c0-16.7-0.8-26.6-2-30.6l101,0c1.2,6,2,16.3,2,28.2
		l0,262C1442.5,307.8,1442.9,318.2,1446.1,319.8"/>
	<path class="st0" d="M558.1,189.5c-9.5-12.7-30.6-21.1-62-21.1c-31.8,0-52.5,8.3-62.4,21.5c-6,7.2-8.3,16.3-8.3,25.4
		c0,9.5,2,18.7,6.8,25.4c9.5,13.9,32.6,21.9,64,21.9c31,0,52.9-7.6,62.4-21.5c4.8-6.8,7.6-16.3,7.6-25.8
		C566.1,205.8,563.7,196.3,558.1,189.5 M647.6,274.2c-25,35-78.7,55.3-152.3,55.3c-79.9,0-128.8-21.5-153.5-55.7
		c-11.5-15.5-17.9-35.8-17.9-58.8c0-21.9,6.4-42.9,18.7-58.4c25-33.8,73.9-56.5,153.1-56.5c76.3,0,126.4,22.3,151.5,54.9
		c12.3,16.7,18.7,37,18.7,60C665.9,238.4,659.5,258.3,647.6,274.2"/>
</g>
</svg>
