<!-- Generated by IcoMoon.io -->
<svg version="1.1" xmlns="http://www.w3.org/2000/svg" width="183" height="32" viewBox="0 0 183 32">
<title>logo</title>
<path d="M48.746 9.284c7.581 0 12.556 2.205 15.044 5.433 1.224 1.654 1.856 3.661 1.856 5.945 0 2.323-0.632 4.291-1.816 5.866-2.488 3.464-7.818 5.472-15.123 5.472-7.936 0-12.793-2.126-15.241-5.512-1.145-1.535-1.777-3.543-1.777-5.827 0-2.165 0.632-4.252 1.856-5.787 2.488-3.346 7.344-5.59 15.202-5.59zM113.748 8.678c8.647 0 14.254 3.346 15.794 8.661 0.434 1.26 0.711 3.582 0.592 5.078h-23.336c0.118 0.669 0.474 1.26 1.185 1.85 1.066 0.945 3.159 1.496 5.804 1.496 2.053 0 3.83-0.394 4.778-0.905 0.553-0.276 1.026-0.709 1.224-1.063h10.148c-0.197 0.945-0.75 1.968-1.579 2.953-2.093 2.598-6.791 4.724-14.689 4.724-6.634 0-11.767-1.457-14.531-4.764-1.501-1.811-2.251-3.937-2.251-6.614 0-2.441 0.79-4.645 2.33-6.378 2.843-3.307 8.094-5.039 14.531-5.039zM19.937 8.615c7.392 0 10.106 4.266 10.106 9.966l0 0.724c0.005 11.591 0.123 11.522 0.316 11.873l-9.978-0.001c-0.266-0.025-0.418-0.761-0.418-10.723 0-2.511-1.423-4.066-4.665-4.066-3.083 0-5.258 1.953-5.258 4.106v10.684h-10.040v-21.926h9.685v3.827c1.66-3.19 5.864-4.465 10.252-4.465zM74.724 9.436l6.911 14.153 6.831-14.153h10.406l-11.399 21.744h-11.836l-11.637-21.744h10.724zM142.584 0.017c0.118 0.591 0.198 1.614 0.198 2.795v25.944c0 1.102 0.039 2.126 0.355 2.283h-10.148c-0.214-0.107-0.235-0.662-0.237-2.216l-0-25.775c0-1.654-0.079-2.638-0.197-3.031h10.029zM48.785 16.056c-3.159 0-5.212 0.827-6.199 2.126-0.592 0.709-0.829 1.614-0.829 2.52 0 0.945 0.197 1.85 0.671 2.52 0.948 1.378 3.238 2.165 6.357 2.165 3.080 0 5.252-0.748 6.199-2.126 0.474-0.669 0.75-1.614 0.75-2.559s-0.237-1.89-0.79-2.559c-0.948-1.26-3.040-2.087-6.16-2.087zM113.63 14.544c-2.685 0-4.857 0.669-5.844 1.654-0.513 0.512-0.869 1.181-0.948 1.693h13.346c0-0.551-0.277-1.26-0.908-1.811-0.987-0.866-2.962-1.535-5.646-1.535zM156.466 0.017c1.386 0 2.621 0.297 3.706 0.892s1.928 1.427 2.531 2.496c0.603 1.069 0.905 2.281 0.905 3.638s-0.302 2.569-0.905 3.638c-0.603 1.069-1.447 1.9-2.531 2.496s-2.32 0.892-3.706 0.892c-1.374 0-2.602-0.297-3.687-0.892s-1.929-1.427-2.532-2.496c-0.604-1.068-0.905-2.281-0.905-3.638s0.301-2.569 0.905-3.638c0.603-1.068 1.447-1.9 2.532-2.496s2.313-0.892 3.687-0.892zM175.786 0.017c1.386 0 2.621 0.297 3.706 0.892s1.928 1.427 2.531 2.496c0.603 1.069 0.905 2.281 0.905 3.638s-0.302 2.569-0.905 3.638c-0.603 1.069-1.447 1.9-2.531 2.496s-2.32 0.892-3.706 0.892c-1.374 0-2.602-0.297-3.687-0.892s-1.929-1.427-2.532-2.496c-0.604-1.068-0.905-2.281-0.905-3.638s0.301-2.569 0.905-3.638c0.603-1.068 1.447-1.9 2.532-2.496s2.313-0.892 3.687-0.892z"></path>
</svg>
