<?xml version="1.0" encoding="utf-8"?>
<!-- Generator: Adobe Illustrator 23.0.3, SVG Export Plug-In . SVG Version: 6.00 Build 0)  -->
<svg version="1.1" id="Layer_1" xmlns="http://www.w3.org/2000/svg" xmlns:xlink="http://www.w3.org/1999/xlink" x="0px" y="0px"
	 viewBox="0 0 1280 703.9" style="enable-background:new 0 0 1280 703.9;" xml:space="preserve">
<style type="text/css">
	.st0{fill:#FFFFFF;}
</style>
<g>
	<g>
		<path class="st0" d="M1280,370c-1,8.7-1.9,17.5-3,26.2c-9,70.7-36.8,133.1-83.7,186.7c-54.5,62.4-122.9,101.4-204.6,115.6
			c-163.3,28.5-323.3-60.2-386.1-213.5c-21.5-52.4-30.4-107-24.5-163.3c13.1-126.9,76.6-220.9,188.3-282
			C809.3,16.3,855.8,4.1,904.7,1c1.8-0.1,3.6-0.6,5.3-1c12,0,24,0,36,0c1.9,0.3,3.9,0.8,5.8,1c8.3,0.8,16.6,1.2,24.8,2.4
			c74,10.8,138.7,41.3,192.9,92.9c60.7,57.7,96.5,128.4,107.4,211.5c1.1,8.7,2,17.5,3,26.2C1280,346,1280,358,1280,370z
			 M1047.8,386.1c0-95.1,0-189.5,0-284.2c-2,0-3.5,0-5,0c-25.3,0-50.7-0.1-76,0c-14.4,0.1-26.2,6-34.8,17.6
			c-64.6,86.5-129.1,173-193.6,259.6c-8.8,11.8-13.2,25.4-13.3,40.1c-0.2,22.5-0.1,45-0.1,67.5c0,1.6,0.2,3.2,0.3,5.4
			c2.1,0,3.9,0,5.7,0c58.2,0,116.3,0,174.5-0.1c10.9,0,13.7,2.8,13.7,13.5c0.1,23.8,0.2,47.7,0.3,71.5c0,1.8,0.2,3.6,0.2,5.4
			c42.9,0,85.3,0,128.2,0c0-30.2,0-60,0-90.4c24,0,47.5,0,71,0c0-35.6,0-70.5,0-105.8C1095.2,386.1,1071.9,386.1,1047.8,386.1z"/>
		<path class="st0" d="M0,22c1.3-0.1,2.6-0.3,4-0.3c44.6,0,89.2,0,133.9,0c1.5,0,2.9,0.1,4.7,0.2c0,44.6,0,89,0,134.1
			c-47.5,0-95,0-142.6,0C0,111.3,0,66.7,0,22z M37.9,137.1c2,0,3.7,0,5.3,0c12.2-0.1,24.3,0.2,36.5-0.3c4.5-0.2,9.1-1.8,13.4-3.6
			c9.8-4.1,15.4-11.8,15.6-22.4c0.2-10.6-5.5-18.2-15.1-22.8c-1.7-0.8-3.4-1.5-3.8-1.7c3.1-4.7,7.5-8.9,9-13.9
			c4.3-13.8-3.9-27.6-19-30.1c-13.6-2.2-27.7-1.5-41.8-2.1C37.9,73.1,37.9,104.7,37.9,137.1z"/>
		<path class="st0" d="M0,189c12.6,0.3,25.4-0.3,37.9,1.2c21.1,2.6,32.5,23.2,24.2,42.3c-2.8,6.4-6.2,9.9-15.4,15
			c17.2,13.6,24.1,34.7,38.6,51.1c2.3-5.3,4.5-10.3,6.6-15.2c13-30.4,26-60.8,38.9-91.2c1.1-2.6,2.4-4.4,5.4-3.8
			c3.1,0.6,6.8-1.8,8.9,3c15.7,35.6,31.5,71.1,47.3,106.7c0.2,0.4,0.2,0.9,0.4,2.2c-5,0-9.7,0.2-14.4-0.2c-1.1-0.1-2.4-2-3.1-3.3
			c-3.9-8.4-7.8-16.9-11.5-25.4c-1.2-2.8-2.7-3.6-5.6-3.6c-13,0.1-26,0.2-39,0c-3.5-0.1-4.9,1.3-6.1,4.3c-3.3,8.2-7,16.2-10.3,24.3
			c-1.1,2.8-2.5,4.1-5.8,4.1c-9-0.2-18,0.1-27-0.2c-1.9-0.1-4.3-1.5-5.4-3c-7.4-10.6-14.3-21.6-21.8-32.2
			c-6.3-8.9-14.5-14.7-26.8-12.4c0,15.5,0,31.3,0,47.5c-5.7,0-11,0-16.2,0C0,263,0,226,0,189z M16.2,238.1
			c6.3-0.4,11.9-0.4,17.5-1.2c9-1.3,14.3-7.9,14.3-17c0-8.8-4.7-14.6-13.9-16c-5.8-0.9-11.8-0.9-17.9-1.3
			C16.2,214.7,16.2,226,16.2,238.1z M155.5,252.8c-5.9-13.2-11.5-25.7-17.6-39.4c-5.7,13.9-10.9,26.4-16.3,39.4
			C133,252.8,143.8,252.8,155.5,252.8z"/>
		<path class="st0" d="M471.5,22c0,44.6,0,88.9,0,133.6c-47.4,0-94.7,0-142.4,0c0-44.4,0-88.8,0-133.6C376.5,22,423.7,22,471.5,22z
			 M442,64.4c0-4.8,0.1-9.4-0.1-14.1c-0.1-1.2-0.9-3-1.9-3.4c-18.5-7.6-37.4-10.7-56.7-3.3c-17.7,6.7-29.1,19.4-32.1,38.2
			c-3,18.4,3.7,33.6,18.3,45.3c19.2,15.4,52.2,13.4,71.7,3.3c0.8-0.4,1.7-1.3,1.7-2c0.1-5.3,0.1-10.7,0.1-16.2
			c-0.9,0.2-1.1,0.2-1.2,0.2c-1.3,0.7-2.6,1.5-3.9,2.2c-13.3,7.2-27.2,10.5-42.3,7.3c-15.6-3.3-26.4-15-27.5-29.6
			c-1.2-15.8,7.5-29.4,22.6-35c10.2-3.8,20.6-3.7,30.9-0.6C428.4,58.7,434.9,61.7,442,64.4z"/>
		<path class="st0" d="M306.8,155.9c-47.6,0-94.7,0-142.2,0c0-44.5,0-88.9,0-133.7c47.3,0,94.6,0,142.2,0
			C306.8,66.6,306.8,111,306.8,155.9z M202.3,40.2c0,33.1,0,64.8,0,96.7c13.8,0,27.3,0.6,40.8-0.3c6.4-0.4,13.2-2.7,18.7-6
			c15.3-9.2,15.1-30.7,0.1-40.4c-2.8-1.8-5.9-3.1-8-4.2c3-4.1,7.1-7.9,8.9-12.5c5.3-13.9-3.2-28.7-19-31.3
			C230.3,40.1,216.4,40.8,202.3,40.2z"/>
		<path class="st0" d="M421.2,187.5c29.3,0.4,51.4,16.8,58.1,43.4c8.4,33.7-13.9,65.9-48.6,70.2c-22.1,2.8-41.6-2.5-56.1-20
			c-13.9-16.7-16.8-36-9.4-56.3c7.2-19.9,22.2-31.4,42.7-35.7C412.2,188.1,416.8,188,421.2,187.5z M421.1,202.8
			c-24.8,0-43.2,18-43.1,42.1c0.1,24,18.7,42.2,43.2,42.2c24.7,0,42.9-18,42.9-42.3C464.1,220.2,446.2,202.8,421.1,202.8z"/>
		<path class="st0" d="M206.9,189.8c0.6-0.3,0.9-0.6,1.1-0.6c17.5,0.2,35-0.5,52.4,1c27.4,2.4,47.6,24.7,48.5,51.5
			c0.9,28.2-17.7,52.1-45,57.1c-6.8,1.2-13.9,1.3-20.9,1.4c-12,0.2-23.9,0.1-36.2,0.1C206.9,263.1,206.9,226.4,206.9,189.8z
			 M223.1,285.1c11.7,0,22.9,0.8,33.9-0.2c19.1-1.6,33.6-17,35-35.7c1.7-21.9-8.5-38.8-28.6-43c-12.8-2.6-26.4-1.6-39.6-2.2
			c-0.2,0-0.5,0.4-0.7,0.6C223.1,231.6,223.1,258.5,223.1,285.1z"/>
		<path class="st0" d="M342.8,300c-5.1,0-10.1,0-15.4,0c0-36.8,0-73.4,0-110.5c4.9,0,9.9,0,15.4,0
			C342.8,226.1,342.8,262.7,342.8,300z"/>
		<path class="st0" d="M902.1,482.5c23.6-18.7,35.4-43.3,39.2-72.7c-6.9-1.3-13.4-2.4-19.9-3.8c-29.4-6.4-46.8-35.4-38.2-63.5
			c8.6-28,40.2-43.2,67.6-32.1c17,6.9,24.8,21,27.9,38.1c3.9,21.3,0.1,41.7-8.8,61.3c-13.7,30.1-33.8,54.5-62.7,71
			c-1.2,0.7-2.3,1.3-3.5,1.9C903.5,482.8,903.1,482.6,902.1,482.5z"/>
		<path class="st0" d="M54.8,95.5c9,0.5,17.3,0.4,25.5,1.6c7.3,1.1,10.7,5.7,10.8,11.6c0.1,6.5-3.1,11-10.6,12.3
			c-8.2,1.3-16.7,1.3-25.3,1.9c-0.2-2-0.4-3-0.4-3.9C54.7,111.6,54.8,104.1,54.8,95.5z"/>
		<path class="st0" d="M55,81.9c0-9.4,0-17.4,0-26.3c6.4,0.4,12.7,0.3,18.8,1.2c5.1,0.8,8.1,4.2,8.5,9.6c0.4,6-1.7,10.8-7.1,12.3
			C68.9,80.4,62.2,80.8,55,81.9z"/>
		<path class="st0" d="M219.3,123c0-9.6,0-18,0-27.4c8.7,0.5,17.1,0.4,25.4,1.6c7.1,1.1,10.9,6,11,11.7c0,6.1-3.8,11.1-11,12.3
			C236.6,122.5,228.2,122.4,219.3,123z"/>
		<path class="st0" d="M219.1,56.1c6.2,0,11.9-0.4,17.5,0.1c6,0.5,9.7,4.5,10.3,9.8c0.7,5.8-2.1,11.4-7.8,12.9
			c-6.2,1.6-12.7,1.9-19.9,2.9c0-5.1,0-9.2,0-13.3C219.1,64.6,219.1,60.6,219.1,56.1z"/>
	</g>
</g>
</svg>
