<?xml version="1.0" encoding="utf-8"?>
<!-- Generator: Adobe Illustrator 24.2.0, SVG Export Plug-In . SVG Version: 6.00 Build 0)  -->
<svg version="1.1" id="Layer_1" xmlns="http://www.w3.org/2000/svg" xmlns:xlink="http://www.w3.org/1999/xlink" x="0px" y="0px"
	 viewBox="0 0 500 214" style="enable-background:new 0 0 500 214;" xml:space="preserve">
<style type="text/css">
	.st0{fill:#FFFFFF;}
	.st1{font-family:'MyriadPro-Regular';}
	.st2{font-size:3.7314px;}
</style>
<g>
	<text transform="matrix(1 0 0 1 248.7356 110.1816)" class="st0 st1 st2">   </text>
	<text transform="matrix(1 0 0 1 248.7356 110.1816)" class="st0 st1 st2">   </text>
	<g id="tyI6t3_1_">
		<g>
			<path class="st0" d="M337.8,189.3c0-33.5,0-66.7,0-100.1c0.5,0,0.9-0.1,1.4-0.1c10.8,0,21.7,0,32.5,0
				c17.5,0.1,32.4,13.7,33.5,31.2c0.5,7.5,0.2,15.1,0.2,22.7c0,5.1,0.1,10.3-0.2,15.4c-1,14.4-11.3,26.5-25.2,29.8
				c-2.9,0.7-5.9,1-8.9,1.1c-10.5,0.1-20.9,0-31.4,0C339.1,189.3,338.6,189.3,337.8,189.3z M354.6,172.7c6.2,0,12.2,0.4,18.2-0.1
				c9.1-0.7,15.6-7.7,15.6-16.5c0.1-11.2,0.1-22.5,0-33.7c-0.1-8.3-7.2-15.8-15.5-16.2c-5.9-0.2-11.9-0.1-17.9-0.1
				c-0.1,0-0.3,0.1-0.5,0.2C354.6,128.4,354.6,150.5,354.6,172.7z"/>
			<path class="st0" d="M162.7,139.3c0,6.3,0,12.5,0,18.8c0,19.8-16,35-35.8,34.2c-15.4-0.7-29.1-12.9-31.4-28.1
				c-0.3-2.1-0.5-4.3-0.5-6.5c0-12.8,0-25.5,0-38.3c0-16,12.7-30.6,28.5-32.8c18.9-2.7,35.3,9.1,38.7,27.8c0.3,1.8,0.5,3.7,0.5,5.6
				C162.7,126.5,162.7,132.9,162.7,139.3z M145.7,139.3c0-6.3,0-12.5,0-18.8c0-1.1,0-2.2-0.2-3.3c-1.6-8.6-9.4-14.8-17.8-14.1
				c-9.2,0.8-15.8,8-15.8,17.2c0,12.6,0,25.3,0,37.9c0,0.6,0,1.1,0.1,1.7c0.7,8.8,8.8,17.1,19.8,15.1c8.5-1.5,13.9-8.3,13.9-17
				C145.7,151.9,145.7,145.6,145.7,139.3z"/>
			<path class="st0" d="M175.9,89.2c5.7,0,11.2,0,16.9,0c0,3.3,0,6.6,0,9.8c0,19.7,0,39.4,0,59.1c0,9.7,7.3,17.2,16.8,17.2
				c9.6,0,17-7.4,17-17.2c0-22.2,0-44.4,0-66.5c0-0.7,0-1.4,0-2.3c5.6,0,11.1,0,16.8,0c0,0.5,0.1,1,0.1,1.5c0,22.8,0,45.5,0,68.3
				c0,16.8-13.1,31.2-29.7,33.1c-17.9,2-33.5-9.3-37.3-27c-0.5-2.2-0.6-4.4-0.6-6.6c0-22.5,0-45.1,0-67.6
				C175.9,90.3,175.9,89.8,175.9,89.2z"/>
			<path class="st0" d="M273.7,189.3c-5.6,0-11.1,0-16.8,0c0-0.6,0-1.1,0-1.7c0-22.5,0-45.1,0-67.6c0-16.9,12.3-31,29-33.4
				c18.1-2.6,35.1,9.7,38.1,27.6c0.3,1.9,0.5,3.9,0.5,5.9c0,22.5,0,45.1,0,67.6c0,0.5,0,1,0,1.6c-5.7,0-11.2,0-16.9,0
				c0-0.7,0-1.4,0-2.1c0-22.4,0-44.8,0-67.2c0-9.3-7.6-16.8-16.8-16.9c-9.4-0.1-17.1,7.5-17.1,16.9c0,22.2,0,44.4,0,66.5
				C273.7,187.4,273.7,188.3,273.7,189.3z"/>
			<path class="st0" d="M417.2,156.4c5.5,0,10.5,0,15.4,0c0.3,2.7,0.3,5.4,1,7.9c2.2,8.4,10.9,13.8,19.5,12.5
				c8.6-1.3,15.2-9,14.9-17.4c-0.1-3.3-1.5-6.2-3.4-8.8c-6.9-9.1-13.9-18.2-20.9-27.3c-0.2-0.3-0.4-0.6-0.8-1c0.4-0.1,0.7-0.1,1-0.1
				c5.4,0,10.8,0,16.2,0c0.6,0,1.5,0.4,1.9,0.9c5.1,6.4,10.1,12.9,15.1,19.4c4.2,5.4,6.7,11.6,6.4,18.4c-0.3,8.2-3.3,15.5-9.2,21.3
				c-9.5,9.5-21,12.6-33.8,8.6c-12.7-4-20.2-13-22.7-26.1C417.3,162,417.4,159.3,417.2,156.4z"/>
			<path class="st0" d="M17.9,156.4c5.4,0,10.4,0,15.2,0c0.3,2.7,0.3,5.4,1,7.9c2.2,7.7,9.6,13,17.4,12.6
				c8.5-0.4,15.4-6.3,16.9-14.5c0.8-4.6-0.7-8.6-3.4-12.2c-6.9-9-13.8-18-20.7-27c-0.2-0.3-0.4-0.6-0.7-1c0.4-0.1,0.7-0.1,0.9-0.1
				c5.4,0,10.8,0,16.2,0c0.6,0,1.5,0.4,1.9,0.9c5,6.4,10,12.8,15,19.3c4.5,5.9,7.2,12.6,6.4,20.1c-1.3,12.3-7.6,21.5-18.9,26.8
				c-19.7,9.2-42-2.2-46.5-23.5c-0.4-1.8-0.5-3.6-0.6-5.4C17.8,159.1,17.9,157.8,17.9,156.4z"/>
			<path class="st0" d="M82.8,121.7c-5.5,0-10.5,0-15.4,0c-0.3-2.3-0.3-4.6-0.8-6.8c-1.9-8.3-10.2-14.1-18.5-13.2
				c-9,1-15.9,8-16.2,16.8c-0.1,3.8,1.5,7.1,3.8,10.1c5.8,7.6,11.7,15.2,17.5,22.8c1.1,1.4,2.2,2.9,3.4,4.5c-0.6,0-1,0.1-1.4,0.1
				c-5.2,0-10.5,0-15.7,0c-0.7,0-1.6-0.4-2-1c-4.9-6.2-9.8-12.5-14.6-18.8c-4.4-5.8-6.9-12.3-6.4-19.6c0.8-13.7,11.2-25.9,24.7-29.3
				c19.3-4.8,38,7.5,41.1,27.2C82.6,116.8,82.6,119.2,82.8,121.7z"/>
			<path class="st0" d="M456.2,156c-2.7,0-5.2,0-7.7,0c-3.2,0-6.3,0.1-9.5,0c-0.7,0-1.5-0.4-1.9-0.9c-4.9-6.3-9.9-12.5-14.7-18.9
				c-4.7-6.2-7.1-13.1-6.3-20.9c1.4-13.2,11.4-24.6,24.4-28c18.8-4.9,37.8,7.3,41.1,26.4c0.4,2.6,0.4,5.2,0.6,7.9
				c-5.4,0-10.4,0-15.4,0c-0.2-2-0.1-4-0.5-6c-1.7-8.4-9.2-14.3-17.7-14c-8.5,0.3-15.6,6.5-17,14.9c-0.7,4.5,0.8,8.3,3.4,11.7
				c6.9,9,13.8,18,20.7,27C455.8,155.4,455.9,155.6,456.2,156z"/>
			<path class="st0" d="M279.7,25.4c15,0,29.8,0,44.8,0c0,13.1,0,26.1,0,39.2c-14.9,0-29.8,0-44.8,0
				C279.7,51.6,279.7,38.6,279.7,25.4z M314.4,36.5c0-1,0.1-2,0-2.9c-0.1-0.6-0.6-1.4-1.1-1.6c-4.4-1.8-8.9-2.4-13.7-1.5
				c-6.1,1.2-11.4,6.6-11.9,12.2c-0.6,6.3,3,12.2,9.1,14.4c5.7,2.1,11.5,1.5,17.1-0.9c0.4-0.2,0.8-0.6,0.8-1c0.1-1.1,0-2.3,0-3.7
				c-0.8,0.4-1.3,0.7-1.8,0.9c-4.1,2-8.4,2.6-12.8,1.6c-4.3-1-7.5-4.6-8-8.7c-0.5-4.2,1.7-8.1,5.7-10.1c3.6-1.8,7.3-1.9,11-0.8
				C310.6,35.1,312.4,35.8,314.4,36.5z"/>
			<path class="st0" d="M227.7,25.4c15,0,29.9,0,44.9,0c0,13.1,0,26.1,0,39.2c-15,0-29.9,0-44.9,0C227.7,51.5,227.7,38.6,227.7,25.4
				z M255.7,44.3c1.1-1.4,2.7-2.6,3.3-4.2c1.5-3.6-1.3-7.8-5.6-8.5c-2.6-0.4-5.3-0.3-7.9-0.4c-1.3,0-2.6,0-4,0c0,9.3,0,18.3,0,27.3
				c4.1,0,8.1,0.1,12.1-0.1c1.6-0.1,3.2-0.7,4.7-1.4c2.5-1.2,3.7-3.4,3.6-6.2c-0.1-2.7-1.6-4.5-3.9-5.7
				C257.1,44.7,256.2,44.5,255.7,44.3z"/>
			<path class="st0" d="M176,25.4c15,0,29.8,0,44.8,0c0,13.1,0,26,0,39.1c-14.9,0-29.8,0-44.8,0C176,51.6,176,38.6,176,25.4z
				 M189.8,31c0,9.4,0,18.5,0,27.6c3.5,0,6.8,0,10.2,0c0.5,0,1.1,0.1,1.5-0.1c1.9-0.6,3.9-0.9,5.5-1.9c4.2-2.6,4.1-8.4,0-11
				c-1.1-0.7-2.3-1.1-3.5-1.6c0.5-0.3,1-0.6,1.4-0.9c2.4-1.6,3.2-3.9,2.4-6.6c-0.8-2.8-2.7-4.6-5.5-4.9
				C197.8,31.2,193.8,31.2,189.8,31z"/>
			<path class="st0" d="M245.8,54.9c0-2.6,0-5.4,0-8.6c2.9,0.2,5.7,0.3,8.4,0.7c2.2,0.4,3.5,2.4,3.2,4.1c-0.3,2.3-1.8,3.6-4.2,3.7
				C250.8,54.9,248.3,54.9,245.8,54.9z"/>
			<path class="st0" d="M245.9,34.5c2.2,0.2,4.2,0.2,6.3,0.5c1.6,0.2,2.6,1.5,2.8,3.3c0.2,1.6-0.9,3.6-2.6,3.9
				c-2,0.5-4.2,0.5-6.4,0.7C245.9,40.1,245.9,37.5,245.9,34.5z"/>
			<path class="st0" d="M194.1,55.2c0-3,0-5.8,0-8.9c2.9,0.2,5.7,0.2,8.4,0.6c2.1,0.3,3.3,2.2,3.1,4.2c-0.1,1.9-1.5,3.4-3.6,3.6
				C199.4,55,196.8,55.1,194.1,55.2z"/>
			<path class="st0" d="M194,43c0-2.9,0-5.5,0-8.2c1.8,0,3.6-0.2,5.4,0c2.5,0.3,3.6,1.6,3.6,3.7c0,2.1-1.3,3.8-3.6,4.1
				C197.7,42.9,195.9,42.9,194,43z"/>
		</g>
	</g>
</g>
</svg>
