<svg aria-hidden="true" style="position: absolute; width: 0; height: 0; overflow: hidden;" version="1.1" xmlns="http://www.w3.org/2000/svg" xmlns:xlink="http://www.w3.org/1999/xlink">
<defs>
<symbol id="icon-instagram" viewBox="0 0 24 28">
<title>instagram</title>
<path d="M16 14c0-2.203-1.797-4-4-4s-4 1.797-4 4 1.797 4 4 4 4-1.797 4-4zM18.156 14c0 3.406-2.75 6.156-6.156 6.156s-6.156-2.75-6.156-6.156 2.75-6.156 6.156-6.156 6.156 2.75 6.156 6.156zM19.844 7.594c0 0.797-0.641 1.437-1.437 1.437s-1.437-0.641-1.437-1.437 0.641-1.437 1.437-1.437 1.437 0.641 1.437 1.437zM12 4.156c-1.75 0-5.5-0.141-7.078 0.484-0.547 0.219-0.953 0.484-1.375 0.906s-0.688 0.828-0.906 1.375c-0.625 1.578-0.484 5.328-0.484 7.078s-0.141 5.5 0.484 7.078c0.219 0.547 0.484 0.953 0.906 1.375s0.828 0.688 1.375 0.906c1.578 0.625 5.328 0.484 7.078 0.484s5.5 0.141 7.078-0.484c0.547-0.219 0.953-0.484 1.375-0.906s0.688-0.828 0.906-1.375c0.625-1.578 0.484-5.328 0.484-7.078s0.141-5.5-0.484-7.078c-0.219-0.547-0.484-0.953-0.906-1.375s-0.828-0.688-1.375-0.906c-1.578-0.625-5.328-0.484-7.078-0.484zM24 14c0 1.656 0.016 3.297-0.078 4.953-0.094 1.922-0.531 3.625-1.937 5.031s-3.109 1.844-5.031 1.937c-1.656 0.094-3.297 0.078-4.953 0.078s-3.297 0.016-4.953-0.078c-1.922-0.094-3.625-0.531-5.031-1.937s-1.844-3.109-1.937-5.031c-0.094-1.656-0.078-3.297-0.078-4.953s-0.016-3.297 0.078-4.953c0.094-1.922 0.531-3.625 1.937-5.031s3.109-1.844 5.031-1.937c1.656-0.094 3.297-0.078 4.953-0.078s3.297-0.016 4.953 0.078c1.922 0.094 3.625 0.531 5.031 1.937s1.844 3.109 1.937 5.031c0.094 1.656 0.078 3.297 0.078 4.953z"></path>
</symbol>
<symbol id="icon-twitter" viewBox="0 0 26 28">
<title>twitter</title>
<path d="M25.312 6.375c-0.688 1-1.547 1.891-2.531 2.609 0.016 0.219 0.016 0.438 0.016 0.656 0 6.672-5.078 14.359-14.359 14.359-2.859 0-5.516-0.828-7.75-2.266 0.406 0.047 0.797 0.063 1.219 0.063 2.359 0 4.531-0.797 6.266-2.156-2.219-0.047-4.078-1.5-4.719-3.5 0.313 0.047 0.625 0.078 0.953 0.078 0.453 0 0.906-0.063 1.328-0.172-2.312-0.469-4.047-2.5-4.047-4.953v-0.063c0.672 0.375 1.453 0.609 2.281 0.641-1.359-0.906-2.25-2.453-2.25-4.203 0-0.938 0.25-1.797 0.688-2.547 2.484 3.062 6.219 5.063 10.406 5.281-0.078-0.375-0.125-0.766-0.125-1.156 0-2.781 2.25-5.047 5.047-5.047 1.453 0 2.766 0.609 3.687 1.594 1.141-0.219 2.234-0.641 3.203-1.219-0.375 1.172-1.172 2.156-2.219 2.781 1.016-0.109 2-0.391 2.906-0.781z"></path>
</symbol>
<symbol id="icon-facebook" viewBox="0 0 16 28">
<title>facebook</title>
<path d="M14.984 0.187v4.125h-2.453c-1.922 0-2.281 0.922-2.281 2.25v2.953h4.578l-0.609 4.625h-3.969v11.859h-4.781v-11.859h-3.984v-4.625h3.984v-3.406c0-3.953 2.422-6.109 5.953-6.109 1.687 0 3.141 0.125 3.563 0.187z"></path>
</symbol>
<symbol id="icon-pause" viewBox="0 0 24 24">
<title>pause</title>
<path d="M14.016 5.016h3.984v13.969h-3.984v-13.969zM6 18.984v-13.969h3.984v13.969h-3.984z"></path>
</symbol>
<symbol id="icon-play_arrow" viewBox="0 0 24 24">
<title>play_arrow</title>
<path d="M8.016 5.016l10.969 6.984-10.969 6.984v-13.969z"></path>
</symbol>
<symbol id="icon-call_made" viewBox="0 0 24 24">
<title>call_made</title>
<path d="M9 5.016h9.984v9.984h-1.969v-6.609l-11.625 11.625-1.406-1.406 11.625-11.625h-6.609v-1.969z"></path>
</symbol>
<symbol id="icon-arrow_downward" viewBox="0 0 24 24">
<title>arrow_downward</title>
<path d="M20.016 12l-8.016 8.016-8.016-8.016 1.453-1.406 5.578 5.578v-12.188h1.969v12.188l5.625-5.578z"></path>
</symbol>
<symbol id="icon-arrow_back_ios" viewBox="0 0 24 24">
<title>arrow_back_ios</title>
<path d="M11.672 3.891l-8.109 8.109 8.109 8.109-1.781 1.781-9.891-9.891 9.891-9.891z"></path>
</symbol>
<symbol id="icon-arrow_forward_ios" viewBox="0 0 24 24">
<title>arrow_forward_ios</title>
<path d="M5.859 4.125l2.156-2.109 9.984 9.984-9.984 9.984-2.156-2.109 7.922-7.875z"></path>
</symbol>
<symbol id="icon-learn" viewBox="0 0 137 32">
<title>learn</title>
<path d="M105.2 0h-105.2v32h136.8v-32h-31.6zM1.6 30.4v-28.8h102v28.8h-102zM135.2 30.4h-30v-28.8h30v28.8z"></path>
<path d="M28.16 14c-0.32-0.24-0.64-0.32-0.96-0.48-0.32-0.080-0.72-0.16-1.040-0.16-0.48 0-0.96 0.080-1.36 0.24s-0.8 0.32-1.12 0.64c-0.32 0.32-0.56 0.64-0.72 1.040s-0.24 0.88-0.24 1.44c0 0.56 0.080 1.040 0.24 1.44s0.4 0.8 0.72 1.040 0.64 0.48 1.12 0.64c0.4 0.16 0.88 0.24 1.44 0.24 0.32 0 0.64 0 0.88-0.080 0.32-0.080 0.56-0.080 0.8-0.24 0.24-0.080 0.4-0.16 0.64-0.24 0.16-0.080 0.32-0.16 0.4-0.32l-0.56-1.12c-0.24 0.16-0.48 0.32-0.8 0.4s-0.72 0.16-1.28 0.16c-0.24 0-0.48 0-0.72-0.080s-0.4-0.16-0.64-0.24-0.32-0.24-0.4-0.48c-0.080-0.16-0.16-0.4-0.16-0.72h4.64c0.080-0.4 0.16-0.8 0.16-1.2 0-0.56-0.080-0.96-0.24-1.36-0.32-0.080-0.56-0.4-0.8-0.56zM24.4 16.080c0-0.24 0.080-0.4 0.16-0.56s0.24-0.32 0.4-0.4 0.32-0.24 0.56-0.24c0.16-0.080 0.4-0.080 0.64-0.080 0.48 0 0.8 0.16 1.040 0.4s0.32 0.56 0.32 0.96h-3.12z"></path>
<path d="M19.68 18.4h-2.56v-7.36h-1.76v8.96h5.92v-3.68h-1.6z"></path>
<path d="M36.080 18.24c0-0.24 0-0.4 0-0.64s0-0.48 0.080-0.8c0-0.32 0.080-0.64 0.080-1.12 0-0.32-0.080-0.64-0.16-0.96-0.080-0.24-0.24-0.48-0.4-0.72-0.16-0.16-0.48-0.32-0.72-0.48-0.32-0.080-0.72-0.16-1.12-0.16-0.64 0-1.12 0.080-1.6 0.16s-0.88 0.24-1.2 0.4l0.4 1.28c0.24-0.080 0.56-0.24 0.88-0.32s0.72-0.16 1.2-0.16c0.4 0 0.64 0.080 0.8 0.24s0.32 0.4 0.32 0.72v0.32c0 0.080 0 0.16 0 0.24-0.24 0-0.48 0-0.64-0.080-0.16 0-0.32 0-0.48 0-0.4 0-0.8 0.080-1.2 0.16-0.32 0.080-0.64 0.24-0.88 0.4s-0.48 0.4-0.56 0.64c-0.16 0.24-0.16 0.56-0.16 0.96 0 0.56 0.16 1.040 0.56 1.36s0.88 0.48 1.52 0.48c0.56 0 0.96-0.080 1.28-0.32s0.56-0.4 0.72-0.72h0.080l0.16 0.88h2.16v-1.44h-0.8c-0.32-0.080-0.32-0.16-0.32-0.32zM34.48 18c-0.080 0.16-0.24 0.32-0.48 0.48s-0.48 0.24-0.96 0.24c-0.32 0-0.56-0.080-0.72-0.16-0.16-0.16-0.24-0.32-0.24-0.56 0-0.16 0-0.24 0.080-0.4 0.080-0.080 0.16-0.16 0.32-0.24s0.24-0.080 0.4-0.16c0.16 0 0.32-0.080 0.48-0.080s0.4 0 0.56 0c0.16 0 0.32 0.080 0.4 0.080v0.8z"></path>
<path d="M80.16 15.28c0.24-0.16 0.48-0.24 0.8-0.24 0.16 0 0.32 0.080 0.4 0.24s0.16 0.4 0.16 0.64h1.52c0-0.88-0.16-1.52-0.48-1.92s-0.72-0.56-1.2-0.56c-0.4 0-0.8 0.080-1.040 0.32-0.32 0.16-0.56 0.4-0.8 0.72h-0.080l-0.24-0.88h-2.88v1.44h1.6v3.6h-1.6v1.36h6v-1.44h-2.8v-2.72c0.24-0.16 0.4-0.4 0.64-0.56z"></path>
<path d="M90.56 16.16c0-0.56-0.080-0.96-0.24-1.36-0.16-0.32-0.4-0.64-0.72-0.8-0.32-0.24-0.64-0.32-0.96-0.48-0.32-0.080-0.72-0.16-1.040-0.16-0.48 0-0.96 0.080-1.36 0.24s-0.8 0.32-1.12 0.64c-0.32 0.32-0.56 0.64-0.72 1.040s-0.24 0.88-0.24 1.44c0 0.56 0.080 1.040 0.24 1.44s0.4 0.8 0.72 1.040c0.32 0.32 0.64 0.48 1.12 0.64 0.4 0.16 0.88 0.24 1.44 0.24 0.32 0 0.64 0 0.88-0.080 0.32-0.080 0.56-0.080 0.8-0.24 0.24-0.080 0.4-0.16 0.64-0.24 0.16-0.080 0.32-0.16 0.4-0.32l-0.56-1.12c-0.24 0.16-0.48 0.32-0.8 0.4s-0.72 0.16-1.28 0.16c-0.24 0-0.48 0-0.72-0.080s-0.4-0.16-0.64-0.24c-0.16-0.080-0.32-0.24-0.4-0.48-0.080-0.16-0.16-0.4-0.16-0.72h4.64c0-0.16 0.080-0.56 0.080-0.96zM85.84 16.080c0-0.24 0.080-0.4 0.16-0.56s0.24-0.32 0.4-0.4c0.16-0.080 0.32-0.24 0.56-0.24 0.16-0.080 0.4-0.080 0.64-0.080 0.48 0 0.8 0.16 1.040 0.4s0.32 0.56 0.32 0.96h-3.12z"></path>
<path d="M64.32 13.52v0l-1.52-2.48h-1.84v8.96h1.68v-4.88l-0.080-1.28h0.080l1.52 2.32h0.32l1.44-2.32v6.16h1.76v-8.96h-1.76z"></path>
<path d="M41.76 15.28c0.24-0.16 0.48-0.24 0.8-0.24 0.16 0 0.32 0.080 0.4 0.24s0.16 0.4 0.16 0.64h1.52c0-0.88-0.16-1.52-0.48-1.92s-0.72-0.56-1.2-0.56c-0.4 0-0.8 0.080-1.040 0.32-0.32 0.16-0.56 0.4-0.8 0.72h-0.080l-0.24-0.88h-2.88v1.44h1.6v3.6h-1.6v1.36h6.080v-1.44h-2.8v-2.72c0.16-0.16 0.32-0.4 0.56-0.56z"></path>
<path d="M74.48 14.32c-0.32-0.32-0.64-0.56-1.040-0.72s-0.88-0.24-1.44-0.24c-0.48 0-0.96 0.080-1.36 0.24s-0.8 0.4-1.040 0.64c-0.32 0.32-0.56 0.64-0.72 1.040s-0.24 0.88-0.24 1.44c0 0.48 0.080 0.96 0.24 1.36s0.4 0.8 0.64 1.040c0.32 0.32 0.64 0.56 1.040 0.72s0.88 0.24 1.44 0.24c0.48 0 0.96-0.080 1.36-0.24s0.8-0.4 1.040-0.64c0.32-0.32 0.56-0.64 0.72-1.040s0.24-0.88 0.24-1.44c0-0.48-0.080-0.96-0.24-1.36-0.080-0.4-0.32-0.72-0.64-1.040zM73.2 18.32c-0.32 0.32-0.72 0.48-1.2 0.48-0.24 0-0.48-0.080-0.72-0.16s-0.4-0.24-0.56-0.4-0.24-0.4-0.32-0.64c-0.080-0.24-0.080-0.48-0.080-0.8s0.080-0.64 0.16-0.88c0.080-0.24 0.24-0.48 0.32-0.64 0.16-0.16 0.32-0.24 0.56-0.32s0.4-0.080 0.64-0.080c0.56 0 0.96 0.16 1.28 0.56s0.4 0.8 0.4 1.44c0 0.64-0.16 1.12-0.48 1.44z"></path>
<path d="M51.52 14c-0.16-0.16-0.4-0.32-0.72-0.4-0.24-0.080-0.56-0.16-0.88-0.16-0.48 0-0.96 0.080-1.28 0.32-0.4 0.24-0.64 0.48-0.88 0.72h-0.080l-0.16-0.88h-2.24v1.44h0.96v4.96h1.68v-4.16c0.080-0.24 0.24-0.48 0.56-0.72 0.24-0.16 0.56-0.24 0.88-0.24s0.64 0.080 0.88 0.32c0.24 0.24 0.32 0.64 0.32 1.12v3.68h1.68v-4c0-0.48-0.080-0.88-0.16-1.28s-0.4-0.56-0.56-0.72z"></path>
<path d="M113.92 21.6l1.12 1.2 9.76-9.76-0.16 7.52h1.68l0.16-10.32-10.32 0.080-0.080 1.68 7.6-0.080z"></path>
</symbol>
<symbol id="icon-listen" viewBox="0 0 110 32">
<title>listen</title>
<path d="M100 16.24l-11.040-6.64-0.16 12.8z"></path>
<path d="M25.92 12.8c0.32 0 0.64-0.080 0.88-0.24s0.32-0.4 0.32-0.64c0-0.24-0.080-0.48-0.32-0.64s-0.48-0.32-0.88-0.32c-0.32 0-0.64 0.080-0.8 0.32-0.16 0.16-0.32 0.4-0.32 0.64s0.080 0.48 0.32 0.64c0.16 0.16 0.4 0.24 0.8 0.24z"></path>
<path d="M19.68 18.4h-2.56v-7.36h-1.76v8.96h5.92v-3.68h-1.6z"></path>
<path d="M26.72 13.6h-3.92v1.44h2.32v3.52h-2.32v1.44h6.32v-1.44h-2.4z"></path>
<path d="M35.52 16.56c-0.32-0.16-0.64-0.24-1.040-0.4-0.4-0.080-0.72-0.16-1.040-0.24s-0.56-0.16-0.8-0.24c-0.24-0.080-0.32-0.24-0.32-0.4s0.080-0.32 0.32-0.4c0.24-0.080 0.48-0.16 0.88-0.16 0.16 0 0.4 0 0.56 0.080 0.24 0.080 0.4 0.080 0.56 0.16s0.32 0.16 0.56 0.24 0.32 0.16 0.48 0.24l0.72-1.12c-0.080-0.080-0.24-0.16-0.4-0.32-0.16-0.080-0.4-0.24-0.64-0.32s-0.48-0.16-0.8-0.24-0.72-0.080-1.12-0.080c-0.4 0-0.72 0.080-1.12 0.16-0.32 0.080-0.64 0.24-0.88 0.4s-0.4 0.4-0.56 0.64c-0.16 0.24-0.24 0.48-0.24 0.8 0 0.4 0.080 0.72 0.32 0.96s0.48 0.48 0.8 0.64c0.32 0.16 0.64 0.32 1.040 0.4s0.72 0.16 1.040 0.24c0.32 0.080 0.56 0.16 0.8 0.32 0.24 0.080 0.32 0.24 0.32 0.4 0 0.24-0.080 0.4-0.32 0.48-0.16 0.080-0.4 0.16-0.72 0.16-0.24 0-0.48 0-0.8-0.080-0.24-0.080-0.48-0.16-0.72-0.24s-0.4-0.16-0.64-0.32c-0.16-0.080-0.32-0.24-0.48-0.32l-0.8 1.2c0.32 0.32 0.72 0.56 1.28 0.8s1.2 0.32 1.92 0.32c0.96 0 1.6-0.16 2.080-0.56s0.72-0.88 0.72-1.52c0-0.4-0.080-0.72-0.32-0.96-0.080-0.32-0.4-0.56-0.64-0.72z"></path>
<path d="M59.68 14.8c-0.080-0.32-0.24-0.64-0.48-0.8-0.16-0.16-0.4-0.32-0.72-0.4-0.24-0.080-0.56-0.16-0.88-0.16-0.48 0-0.96 0.080-1.28 0.32-0.4 0.24-0.64 0.48-0.88 0.72h-0.080l-0.16-0.88h-2.24v1.44h0.96v4.96h1.68v-4.16c0.080-0.24 0.24-0.48 0.56-0.72 0.24-0.16 0.56-0.24 0.88-0.24s0.64 0.080 0.88 0.32c0.24 0.24 0.32 0.64 0.32 1.12v3.68h1.68v-4c-0.080-0.48-0.16-0.88-0.24-1.2z"></path>
<path d="M51.2 14c-0.32-0.24-0.64-0.32-0.96-0.48-0.32-0.080-0.72-0.16-1.040-0.16-0.48 0-0.96 0.080-1.36 0.24s-0.8 0.32-1.12 0.64c-0.32 0.32-0.56 0.64-0.72 1.040s-0.24 0.88-0.24 1.44c0 0.56 0.080 1.040 0.24 1.44s0.4 0.8 0.72 1.040 0.64 0.48 1.12 0.64c0.4 0.16 0.88 0.24 1.44 0.24 0.32 0 0.64 0 0.88-0.080 0.32-0.080 0.56-0.080 0.8-0.24 0.24-0.080 0.4-0.16 0.64-0.24 0.16-0.080 0.32-0.16 0.4-0.32l-0.56-1.12c-0.24 0.16-0.48 0.32-0.8 0.4s-0.72 0.16-1.28 0.16c-0.24 0-0.48 0-0.72-0.080s-0.4-0.16-0.64-0.24c-0.16-0.080-0.32-0.24-0.4-0.48-0.080-0.16-0.16-0.4-0.16-0.72h4.56c0.080-0.4 0.16-0.8 0.16-1.2 0-0.56-0.080-0.96-0.24-1.36-0.24-0.080-0.48-0.4-0.72-0.56zM47.44 16.080c0-0.24 0.080-0.4 0.16-0.56s0.24-0.32 0.4-0.4c0.16-0.080 0.32-0.24 0.56-0.24 0.16-0.080 0.4-0.080 0.64-0.080 0.48 0 0.8 0.16 1.040 0.4s0.32 0.56 0.32 0.96h-3.12z"></path>
<path d="M43.52 18.16c-0.16 0.080-0.24 0.16-0.4 0.32-0.16 0.080-0.32 0.16-0.48 0.24s-0.4 0.080-0.64 0.080-0.8-0.16-1.040-0.48c-0.24-0.32-0.4-0.8-0.4-1.44v-1.84h3.36v-1.44h-3.36v-1.92l-1.68 0.48v1.44h-1.28v1.44h1.28v1.76c0 1.2 0.24 2 0.72 2.56s1.2 0.8 2.16 0.8c0.24 0 0.56 0 0.8-0.080s0.56-0.16 0.8-0.24c0.24-0.080 0.48-0.24 0.72-0.4s0.4-0.32 0.56-0.48l-0.8-1.12c-0.080 0.080-0.16 0.16-0.32 0.32z"></path>
<path d="M79.2 0h-79.2v32h110.4v-32h-31.2zM1.6 30.4v-28.8h76v28.8h-76zM108.8 30.4h-29.6v-28.8h29.6v28.8z"></path>
</symbol>
<symbol id="icon-logo" viewBox="0 0 140 32">
<title>logo</title>
<path d="M20.463 31.058c-0.272 0-0.427-0.544-0.427-10.382 0-2.428-1.389-3.943-4.555-3.943-3.011 0-5.137 1.894-5.137 3.972v10.353h-9.809v-21.239h9.459v3.71c1.622-3.088 5.73-4.322 10.013-4.322 7.216 0 9.867 4.127 9.867 9.653 0 11.936 0.117 11.858 0.311 12.198h-9.721z"></path>
<path d="M85.929 31.058h-11.508l-11.314-21.239h10.43l6.711 13.82 6.643-13.82h10.12z"></path>
<path d="M117.113 16.384c-0.961-0.845-2.894-1.505-5.526-1.505-2.622 0-4.749 0.66-5.71 1.622-0.505 0.505-0.845 1.156-0.923 1.661h13.052c-0.010-0.544-0.282-1.233-0.893-1.777zM125.99 26.843c-2.049 2.544-6.643 4.632-14.364 4.632-6.487 0-11.508-1.428-14.208-4.671-1.466-1.777-2.205-3.865-2.205-6.487 0-2.389 0.777-4.555 2.282-6.254 2.778-3.244 7.915-4.943 14.208-4.943 8.459 0 13.936 3.283 15.442 8.498 0.427 1.233 0.699 3.516 0.583 4.982h-22.822c0.117 0.66 0.466 1.233 1.156 1.816 1.039 0.923 3.088 1.466 5.672 1.466 2.010 0 3.749-0.388 4.671-0.884 0.544-0.272 1-0.699 1.195-1.039h9.925c-0.185 0.923-0.728 1.923-1.534 2.884z"></path>
<path d="M140.441 31.058h-9.925c-0.233-0.117-0.233-0.777-0.233-2.7v-24.745c0-1.622-0.078-2.583-0.194-2.972h9.809c0.117 0.583 0.194 1.583 0.194 2.739v25.445c0 1.068 0.039 2.078 0.35 2.234z"></path>
<path d="M54.201 18.404c-0.923-1.233-2.972-2.049-6.021-2.049-3.088 0-5.099 0.806-6.060 2.088-0.583 0.699-0.806 1.583-0.806 2.467 0 0.923 0.194 1.816 0.66 2.467 0.923 1.35 3.166 2.127 6.215 2.127 3.011 0 5.137-0.738 6.060-2.088 0.466-0.66 0.738-1.583 0.738-2.506-0.010-0.923-0.243-1.845-0.787-2.506zM62.893 26.629c-2.428 3.399-7.643 5.371-14.791 5.371-7.76 0-12.509-2.088-14.907-5.409-1.117-1.505-1.738-3.477-1.738-5.71 0-2.127 0.622-4.166 1.816-5.672 2.428-3.283 7.177-5.487 14.869-5.487 7.41 0 12.276 2.166 14.713 5.332 1.195 1.622 1.816 3.593 1.816 5.827 0 2.273-0.622 4.205-1.777 5.749z"></path>
</symbol>
<symbol id="icon-cannes-lions" viewBox="0 0 81 32">
<title>cannes-lions</title>
<path d="M50.737 13.874c-0.223-0.172-0.883-0.87-1.349-2.311-0.461-1.441-1.007-2.426-0.066-3.852 0.936-1.424 1.029-2.757 1.152-3.249 0.121-0.497 0.077-1.174 1.221-1.759 1.146-0.581 2.020-0.722 2.867-1.011 0.845-0.287 1.715-1.020 2.112-1.285 0.424-0.285 1.881-0.327 2.443 0.453 0.638 0.881 3.92 1.154 4.381 1.764 0.532 0.702 0.159 1.488-0.121 1.795-0.565 0.616-3.092 2.737-3.309 2.759-0.249 0.027-0.095-0.627 0.121-1.194s0.567-0.965 0.45-1.541c-0.093-0.488-0.433-0.92-1.126-1.38-0.98-0.614-2.856-0.998-3.529-0.72-1.165 0.488-1.587 1.589-1.686 2.364-0.097 0.775-0.207 1.83-0.938 3.081-0.733 1.247-1.176 1.967-1.004 2.697 0.174 0.735 0.742 1.934 0.806 2.642 0.071 0.709-0.013 1.278-0.17 1.987-0.154 0.706-0.254 1.227-0.033 1.695s0.329 0.569 0.384 0.631c0.055 0.071 0.093 0.185-0.073 0.071-0.163-0.119-1.086-1.029-1.413-2.002-0.331-0.973-0.015-2.346-0.15-2.825-0.135-0.477-1.044-1.794-0.973-2.896 0.077-1.104 0.943-2.287 1.32-2.898 0.38-0.611 1.216-1.761 1.393-2.289 0.172-0.525 0.534-1.523 0.715-1.77 0 0-0.152 0.132-0.925 1.071-0.775 0.94-1.463 1.616-1.671 2.474-0.207 0.856-0.709 1.666-1.362 2.225-0.647 0.561-0.258 1.309-0.044 2.218 0.212 0.903 0.362 1.227 0.859 2.132 0.492 0.905 0.258 1.638 0.316 1.764 0.057 0.121-0.377-0.669-0.598-0.841zM56.957 13.139c0.026-0.163 0.247-0.814 0.28-1.174 0.033-0.362 0.064-0.702-0.196-0.631-0.26 0.064-0.55 0.064-0.667-0.027-0.117-0.088-0.126-0.192-0.009-0.201 0.115-0.007 0.642-0.152 0.865-0.344 0.219-0.185 0.331-0.362 0.38-0.477s0.046-0.19-0.152-0.088c-0.194 0.097-0.598 0.386-0.766 0.49-0.163 0.11-0.508 0.201-0.525 0.267s0.082 0.492 0.082 0.927c0 0.437-0.046 1.143-0.183 1.037-0.13-0.104-0.073-0.411-0.276-0.607-0.207-0.199-0.453-0.541-0.422-0.89 0.033-0.349 0.082-0.435 0.022-0.633-0.057-0.199-0.064-0.481 0.108-0.514 0.174-0.031 0.241 0.15 0.645 0.084 0.377-0.062 0.781-0.305 1.086-0.541 0.307-0.243 0.832-0.817 1.121-0.876 0.287-0.057 0.477-0.033 0.704-0.32 0.232-0.289 0.503-0.554 0.638-0.651 0.13-0.102 0.256-0.221 0.305-0.188 0.051 0.031-0.453 1.265-1.287 2.706-0.83 1.439-1.349 2.289-1.479 2.479-0.132 0.188-0.296 0.338-0.274 0.172zM62.626 1.295c-1.159-0.272-2.315 0.046-3.26-0.62-0.064-0.046-0.104-0.221 0.011-0.225 1.057-0.051 2.362-0.344 3.423 0.011 0.095 0.011 2.205 1.068 3.088 2.084 0.437 0.499 1.366 1.505 1.229 2.117-0.143 0.607-0.4 0.938-1.302 1.406-0.536 0.28-4.688 1.176-4.759 1.194-0.684 0.181-0.508-0.154-0.196-0.397 0.316-0.234 0.704-0.554 1.689-1.165 0.987-0.611 1.417-0.87 1.794-1.3 0.68-0.775 0.243-2.466-1.717-3.103zM63.681 23.336c2.931-3.739 7.591-2.236 7.849-1.576-5.957-0.693-5.401 3.883-8.787 5.112-1.651 0.581-6.251 0.249-10.643 4.108-1.399 0.914-3.591 0.38-4.154 0.353-0.558-0.031-1.373-0.031-1.768 0.084-0.397 0.104-0.589 0.077-0.781-0.031-0.194-0.113-0.453-0.221-0.85-0.384-0.397-0.168-0.691-0.168-0.691-0.168s-0.448-0.876-0.258-1.461c0.192-0.594 0.587-0.978 0.85-1.121 0.265-0.132 0.331-0.161 0.331-0.161s0.011-0.084-0.124-0.084c-0.139 0-0.289 0.163-0.373 0.179-0.082 0.015-0.082-0.11 0.015-0.245 0.095-0.139 0.726-0.768 1.658-0.731 0.936 0.044 1.678 0.411 2.309 0.302 0.629-0.11 1.85-0.645 3.454-1.839 1.616-1.201 3.26-2.927 5.271-4.417 1.973-1.455 3.468-2.344 3.891-2.565 0.426-0.219 0.47-0.232 0.539-0.287 0.066-0.057 0.095-0.108-0.287-0.013-0.388 0.097-1.854 0.572-2.459 1-0.607 0.428-0.879 0.799-0.879 0.799s0.082-0.633 0.576-1.168c0.497-0.534 0.55-0.589 0.645-0.66 0.097-0.066 0.057-0.119-0.108-0.026-0.163 0.099-0.949 0.896-1.236 1.318-0.287 0.428-0.441 0.66-1.373 0.812-0.929 0.15-1.768 0.358-2.137 0.7-0.371 0.34-0.521 0.686-0.521 0.686s-0.152 0.188-0.152-0.042c0-0.234 0.152-1.249 1.236-2.059 1.082-0.808 1.589-1.181 1.781-1.316 0.194-0.137 0.183-0.192 0.029-0.179-0.152 0.011-1.388 0.247-1.945 0.684-0.565 0.439-0.731 0.616-0.731 0.616s-0.152 0.044-0.097-0.232c0.057-0.274 0.322-1.11 1.046-1.576 0.722-0.468 1.481-0.715 1.481-0.715l0.029-0.711c0 0-1.538-0.795-1.881-1.071-0.344-0.276-0.689-0.578-0.411-2.156 0.272-1.578 0.3-1.905 0.289-2.044-0.018-0.135-0.636-0.629-0.486-1.525 0.152-0.887 0.494-1.395 0.494-1.395s-0.042 1.042-0.029 1.605c0.018 0.561 0.029 0.903 0.194 1.097 0.163 0.192 0.179 0.108 0.249 0.318 0.071 0.205-0.3 1.768-0.397 2.357-0.095 0.589-0.305 1.139 0.15 1.086 0.453-0.057 0.329-0.168 0.453-0.302 0.124-0.139 0.371-0.194 0.561-0.139 0.194 0.057 0.302 0.152 0.497 0.097 0.192-0.055 0.713 0 0.413 0.369-0.3 0.375-0.781 0.263-0.647 0.605 0.137 0.344 1.79 1.38 2.375 1.009 0.731-0.459 1.104-0.552 1.135-0.85 0.024-0.302-0.532-0.777-0.929-0.554-0.4 0.216-1.084 0.453-1.483 0.369-0.4-0.082-0.508-0.263-0.373-0.247 0.139 0.013 0.55 0.148 0.936-0.302 0.382-0.455 3.629-2.055 4.207-2.989 0.576-0.934-0.324-3.242 0.117-3.679 0.437-0.439 3.699-1.154 4.289-1.351 1.236-0.413 2.077-1.503 1.803-2.501-0.152-0.554-0.971-1.51-1.77-1.998-0.194-0.117 4.055 0.477 4.141 4.71 0.038 1.821 2.688 3.468 2.395 5.47-0.223 1.494-1.733 2.66-2.318 2.978 0.371-0.011 0.75 0.002 1.132 0.044 0.647 0.071 1.265 0.49 1.265 0.49s-4.331 0.528-5.79 1.236c-2.366 1.148-5.375 2.58-8.75 5.183-3.172 2.446-4.75 3.878-8.335 5.779-1.21 0.642-2.333 0.715-2.856 0.837-0.519 0.126-1.079 0.413-1.176 0.768-0.095 0.36-0.042 0.786 0.082 0.894 0.124 0.113 0.19 0.068 0.274-0.108 0.082-0.177 0-0.81 0.371-1.055 0.371-0.249 0.673-0.179 1.633-0.318 0.96-0.137 1.512-0.355 1.686-0.397 0.181-0.044 0.36 0.015 0.084 0.192-0.272 0.177-0.795 0.55-1.483 0.686-0.684 0.137-1.073 0.177-1.263 0.3s-0.205 0.373-0.205 0.373c0 0 0.523-0.057 0.744-0.013 0.219 0.040 0.75 0.318 1.298 0.351 0.545 0.033 1.563 0.238 2.364-0.558 0.468-0.466 2.247-2.304 4.858-3.351 2.238-0.896 5.512-0.799 7.456-3.284zM69.552 14.715c-0.307 0.309-0.523 0.554-0.856 0.735 0.444-0.075 0.916-0.137 1.406-0.159 0.574-0.819 1.291-2.618 1.042-3.872-0.066 0.578-0.272 1.976-1.591 3.295zM68.885 10.466c-0.539-1.201-2.591-2.66-2.858-2.706 0.141 0.135 1.739 2.492 1.825 2.677 0.45 0.976 0.724 1.843 0.558 2.713-0.166 0.854-0.75 1.583-1.382 2.168 0.358-0.177 0.885-0.461 1.143-0.704 0.318-0.291 1.761-2.34 0.713-4.147zM63.912 8.53c1.002 2.541 0.004 6.021-0.141 6.361-0.148 0.34-1.15 2.254-1.15 2.254s2.086-1.614 2.647-3.951c0.349-1.474-1.417-4.814-1.355-4.664zM60.087 15.174c0 0 2.357-0.896 2.638-1.673 0.212-0.587 0.104-1.433 0.035-1.591-0.068-0.161-2.009 2.876-2.673 3.265zM44.689 29.742c0.353-0.87 1.364-1.258 1.095-1.316-0.978-0.205-1.426 0.77-1.455 0.854-0.115 0.302 0.247 0.733 0.36 0.461zM58.887 5.237c-0.364-0.501-1.768-0.755-2.269-0.247l-2.914 3.295c-0.071 0.093 1.34-2.978 1.415-3.406 0.174-0.947 0.611-2.13 2.088-2.042 0.371 0.024 2.554 0.746 2.865 1.364 0.309 0.618-0.618 2.413-0.887 2.446-0.274 0.029-0.046-1.062-0.298-1.41zM77.454 5.173l2.763 6.386h-0.366l-2.474-5.772-2.494 5.768h-0.351l2.783-6.381h0.139zM15.123 30.72c0.064 0.093 0.139 0.172 0.227 0.243 0.086 0.068 0.181 0.126 0.285 0.17s0.212 0.077 0.324 0.102c0.113 0.022 0.23 0.035 0.353 0.035 0.152 0 0.291-0.018 0.422-0.053s0.243-0.088 0.338-0.159c0.095-0.071 0.17-0.157 0.223-0.258s0.079-0.214 0.079-0.34c0-0.115-0.018-0.214-0.053-0.298-0.035-0.082-0.086-0.152-0.152-0.205-0.066-0.055-0.143-0.099-0.234-0.132-0.090-0.035-0.196-0.064-0.318-0.088l-0.532-0.113c-0.121-0.024-0.232-0.055-0.329-0.093s-0.183-0.086-0.258-0.146c-0.075-0.060-0.135-0.135-0.177-0.225s-0.062-0.199-0.062-0.322c0-0.126 0.027-0.238 0.077-0.344 0.051-0.104 0.126-0.194 0.221-0.269s0.207-0.132 0.338-0.17c0.13-0.040 0.274-0.057 0.428-0.057 0.097 0 0.188 0.007 0.276 0.018 0.086 0.013 0.17 0.033 0.249 0.064s0.154 0.071 0.225 0.119c0.071 0.051 0.135 0.11 0.194 0.181l-0.15 0.148c-0.049-0.057-0.102-0.106-0.161-0.146s-0.121-0.073-0.185-0.097c-0.064-0.024-0.135-0.044-0.207-0.055-0.075-0.013-0.152-0.018-0.232-0.018-0.119 0-0.23 0.015-0.331 0.044s-0.19 0.073-0.265 0.128c-0.075 0.055-0.135 0.121-0.177 0.199s-0.062 0.161-0.062 0.254c0 0.090 0.015 0.168 0.049 0.234s0.077 0.121 0.135 0.166c0.057 0.044 0.128 0.082 0.207 0.113 0.079 0.029 0.174 0.055 0.28 0.077l0.532 0.108c0.132 0.029 0.252 0.064 0.36 0.106s0.203 0.097 0.287 0.168c0.084 0.071 0.15 0.159 0.199 0.267s0.073 0.236 0.073 0.386c0 0.157-0.031 0.298-0.095 0.426-0.062 0.128-0.152 0.236-0.267 0.324s-0.254 0.157-0.413 0.203c-0.159 0.046-0.333 0.071-0.523 0.071-0.139 0-0.274-0.011-0.404-0.035s-0.254-0.060-0.373-0.11c-0.117-0.049-0.225-0.115-0.327-0.194-0.099-0.079-0.188-0.174-0.26-0.283l0.166-0.141zM18.659 29.073c0.086-0.214 0.21-0.404 0.369-0.567s0.347-0.289 0.563-0.38c0.216-0.090 0.448-0.135 0.7-0.135 0.115 0 0.227 0.009 0.335 0.029s0.21 0.046 0.307 0.084c0.097 0.038 0.188 0.082 0.276 0.139 0.086 0.055 0.168 0.119 0.241 0.192l-0.139 0.17c-0.064-0.062-0.135-0.117-0.21-0.168s-0.157-0.090-0.241-0.124c-0.086-0.033-0.174-0.057-0.271-0.075-0.095-0.018-0.192-0.026-0.291-0.026-0.216 0-0.417 0.040-0.607 0.117-0.188 0.077-0.351 0.188-0.49 0.329s-0.245 0.305-0.322 0.49c-0.075 0.185-0.113 0.38-0.113 0.585 0 0.207 0.038 0.406 0.113 0.594s0.183 0.351 0.322 0.49c0.139 0.139 0.302 0.249 0.49 0.327s0.391 0.117 0.607 0.117c0.099 0 0.196-0.007 0.289-0.022s0.183-0.038 0.271-0.068c0.086-0.031 0.168-0.068 0.243-0.113s0.146-0.095 0.21-0.15l0.139 0.17c-0.075 0.066-0.154 0.124-0.241 0.174s-0.179 0.093-0.276 0.126c-0.097 0.033-0.199 0.057-0.307 0.075s-0.221 0.026-0.335 0.026c-0.252 0-0.486-0.044-0.7-0.13-0.216-0.086-0.404-0.207-0.563-0.366-0.159-0.157-0.283-0.342-0.369-0.552s-0.13-0.435-0.13-0.675c0-0.238 0.042-0.466 0.13-0.682zM22.643 31.475v-3.476h2.216v0.207h-1.98v1.382h1.598v0.201h-1.598v1.479h1.98v0.207h-2.216zM26.043 31.475v-3.476h0.082l2.401 2.92v-2.92h0.241v3.476h-0.086l-2.401-2.916v2.916h-0.236zM29.848 28.206v-0.207h2.682v0.207h-1.223v3.269h-0.236v-3.269h-1.223zM33.62 27.998h0.236v3.476h-0.236v-3.476zM34.867 31.475l1.516-3.476h0.097l1.501 3.476h-0.256l-0.386-0.914h-1.834l-0.391 0.914h-0.247zM36.425 28.426l-0.837 1.931h1.662l-0.825-1.931zM38.986 31.475v-3.476h0.236v3.269h1.735v0.207h-1.971zM12.243 27.003l1.936 4.472h-0.256l-1.733-4.044-1.748 4.041h-0.247l1.951-4.47h0.097zM4.107 30.567c0 0.128-0.024 0.245-0.073 0.355-0.049 0.108-0.115 0.205-0.201 0.287-0.084 0.082-0.183 0.146-0.298 0.19-0.115 0.046-0.234 0.068-0.362 0.068h-1.625v-3.472h1.618c0.121 0 0.23 0.026 0.327 0.077 0.097 0.053 0.181 0.119 0.249 0.203s0.121 0.179 0.159 0.283c0.038 0.106 0.055 0.212 0.055 0.32 0 0.177-0.044 0.338-0.132 0.483s-0.21 0.254-0.366 0.322c0.199 0.060 0.355 0.168 0.472 0.331s0.177 0.347 0.177 0.552zM1.798 28.221v1.388h1.271c0.095 0 0.181-0.020 0.258-0.060s0.146-0.090 0.203-0.154c0.057-0.064 0.102-0.137 0.135-0.223 0.033-0.084 0.049-0.172 0.049-0.258 0-0.095-0.015-0.183-0.046-0.267s-0.073-0.157-0.128-0.221c-0.053-0.064-0.119-0.115-0.192-0.152-0.075-0.038-0.159-0.055-0.249-0.055h-1.3v0.002zM3.857 30.534c0-0.090-0.015-0.181-0.049-0.267s-0.077-0.163-0.137-0.23c-0.060-0.066-0.128-0.119-0.207-0.159s-0.166-0.060-0.256-0.060h-1.41v1.424h1.373c0.097 0 0.188-0.020 0.272-0.060s0.155-0.093 0.214-0.159c0.060-0.066 0.108-0.143 0.143-0.227 0.038-0.084 0.057-0.172 0.057-0.263zM4.932 27.996l1.212 1.923 1.218-1.923h0.278l-1.369 2.161v1.311h-0.249v-1.32l-1.364-2.152h0.274zM8.601 25.764h-7.052v-11.701h2.984v9.215h4.068v2.485zM10.093 14.059h2.984v11.701h-2.984v-11.701zM27.241 17.556c0.327 0.739 0.49 1.534 0.492 2.366 0 0.832-0.166 1.629-0.494 2.373s-0.808 1.406-1.424 1.967c-0.638 0.576-1.364 1.022-2.161 1.327-0.799 0.307-1.636 0.461-2.488 0.461-0.746 0-1.49-0.121-2.205-0.362s-1.382-0.589-1.978-1.037c-0.773-0.583-1.373-1.289-1.783-2.099-0.413-0.812-0.622-1.697-0.622-2.631 0-0.837 0.163-1.633 0.49-2.368 0.324-0.733 0.808-1.397 1.435-1.969 0.614-0.565 1.335-1.009 2.148-1.32 1.618-0.62 3.397-0.625 5.015 0 0.806 0.311 1.527 0.755 2.148 1.32 0.622 0.572 1.104 1.236 1.428 1.973zM23.683 22.458c0.658-0.671 0.991-1.523 0.991-2.534 0-1.004-0.338-1.858-1.004-2.541-0.673-0.691-1.492-1.026-2.503-1.026-1.026 0-1.854 0.333-2.527 1.022-0.667 0.68-1.004 1.536-1.004 2.543 0 1.022 0.331 1.878 0.987 2.543 0.664 0.673 1.497 1 2.545 1 1.029 0 1.852-0.329 2.516-1.006zM32.108 25.853h-2.869v-11.701h2.969l5.862 7.456-0.020-7.456h2.869v11.701h-2.821l-6.010-7.586 0.020 7.586zM46.495 26.104c-0.938 0-1.757-0.157-2.435-0.466-0.691-0.316-1.214-0.777-1.556-1.375l-0.079-0.139 1.755-1.878 0.132 0.307c0.161 0.375 0.415 0.664 0.775 0.881s0.77 0.327 1.221 0.327c0.543 0 0.976-0.119 1.282-0.355 0.291-0.225 0.435-0.521 0.435-0.903 0-0.43-0.554-0.914-1.605-1.393-0.366-0.166-0.667-0.307-0.894-0.417-1.079-0.532-1.812-1.042-2.236-1.561-0.433-0.528-0.651-1.163-0.651-1.889 0-0.995 0.422-1.823 1.254-2.463 0.814-0.625 1.878-0.943 3.163-0.943 0.748 0 1.408 0.128 1.958 0.377 0.554 0.252 1.048 0.651 1.468 1.183l0.126 0.161-1.863 1.684-0.132-0.243c-0.159-0.289-0.369-0.508-0.625-0.647-0.263-0.143-0.587-0.216-0.965-0.216-0.453 0-0.819 0.106-1.086 0.311-0.254 0.196-0.377 0.444-0.377 0.753 0 0.488 0.589 0.98 1.702 1.428 0.245 0.099 0.435 0.177 0.567 0.234 1.033 0.446 1.814 0.962 2.318 1.532 0.519 0.587 0.784 1.269 0.784 2.022 0 1.121-0.411 2.028-1.223 2.695-0.801 0.66-1.881 0.993-3.212 0.993zM4.78 13.015c-1.313 0.007-2.41-0.382-3.262-1.154-0.856-0.777-1.293-1.781-1.3-2.982-0.007-1.199 0.424-2.203 1.274-2.986 0.845-0.779 1.949-1.176 3.28-1.183 0.444-0.002 0.878 0.040 1.291 0.126 0.415 0.086 0.83 0.223 1.234 0.404l0.119 0.057-0.040 2.194-0.355-0.285c-0.324-0.271-0.66-0.472-0.995-0.596s-0.702-0.185-1.086-0.183c-0.786 0.004-1.415 0.227-1.872 0.667-0.459 0.444-0.682 1.024-0.678 1.775 0.004 0.737 0.214 1.3 0.645 1.724s1.006 0.627 1.759 0.625c0.433-0.002 0.837-0.073 1.203-0.212 0.369-0.137 0.713-0.347 1.026-0.62l0.351-0.307v2.236l-0.11 0.064c-0.375 0.212-0.775 0.373-1.185 0.477-0.408 0.106-0.845 0.159-1.298 0.161zM13.499 4.895l3.234 7.928h-2.39l-0.645-1.594h-2.777l-0.552 1.594h-2.289l3.189-7.928h2.229zM11.55 9.541h1.591l-0.784-2.137c-0.009-0.022-0.015-0.046-0.024-0.073-0.011 0.040-0.020 0.073-0.029 0.097l-0.755 2.112zM19.491 7.976l0.002 4.847h-2.046v-7.928h2.077l3.794 4.761-0.004-4.761h2.048v7.928h-1.978l-3.894-4.847zM28.669 12.823h-2.048v-7.928h2.077l3.796 4.761-0.004-4.761h2.046v7.928h-1.978l-3.894-4.845 0.004 4.845zM40.891 12.823h-5.097v-7.928h5.097v1.779h-2.973v1.115h2.973v1.79h-2.973v1.455h2.973v1.79zM44.665 13.020c-0.636 0-1.19-0.106-1.649-0.316-0.472-0.216-0.832-0.534-1.066-0.945l-0.077-0.137 1.274-1.364 0.13 0.3c0.102 0.236 0.26 0.417 0.488 0.554 0.23 0.137 0.49 0.207 0.779 0.207 0.347 0 0.62-0.075 0.812-0.223 0.181-0.139 0.265-0.313 0.265-0.547 0-0.148-0.135-0.457-1.031-0.867-0.252-0.113-0.45-0.207-0.596-0.28-0.726-0.358-1.221-0.704-1.512-1.057-0.298-0.364-0.45-0.801-0.45-1.3 0-0.686 0.289-1.256 0.861-1.693 0.554-0.426 1.278-0.64 2.148-0.64 0.51 0 0.958 0.086 1.333 0.258 0.377 0.172 0.715 0.444 1.002 0.808l0.124 0.157-1.353 1.223-0.13-0.238c-0.099-0.183-0.227-0.316-0.388-0.404-0.163-0.090-0.371-0.135-0.609-0.135-0.287 0-0.517 0.066-0.682 0.194-0.154 0.119-0.227 0.26-0.227 0.448 0 0.294 0.377 0.6 1.090 0.887 0.166 0.066 0.291 0.117 0.38 0.157 0.7 0.302 1.227 0.651 1.567 1.037 0.358 0.404 0.539 0.872 0.539 1.391 0 0.768-0.283 1.388-0.839 1.847-0.543 0.45-1.278 0.678-2.181 0.678z"></path>
</symbol>
<symbol id="icon-premier-league" viewBox="0 0 25 32">
<title>premier-league</title>
<path d="M5.529 3.609c1.305 0.614 2.169 1.363 2.323 1.478-0.058-0.346-0.326-1.977-0.499-2.975 0.749 0.518 2.553 1.766 3.129 2.169 0.23-0.729 1.075-3.129 1.075-3.129s1.497 2.4 1.728 2.803c0.326-0.307 2.092-2.304 2.553-2.803 0.096 1.133 0.173 2.783 0.211 3.014 0.096-0.115 0.787-1.075 1.92-1.977-0.499 0.979-0.729 2.323-0.845 3.417-1.133-0.326-2.323-0.499-3.532-0.499-2.342 0-4.569 0.614-6.488 1.708-0.326-1.056-0.845-2.361-1.574-3.206zM23.535 24.226l-1.037-1.152c-0.288 3.091-1.824 5.74-4.607 7.582l-0.442-1.67c-2.38 1.708-6.431 2.803-9.924 0.845 0.441-2.208 0.806-4.453 0-7.141-1.939 2.975-3.647 4.166-3.647 4.166-1.305-2.208-1.19-6.603-0.806-7.909l-2.169 0.672c0-1.478 1.075-4.607 2.611-6.373l-1.325-0.211c0.921-1.881 2.284-3.494 3.993-4.741-0.518 0.845-0.518 2.803 0.96 3.551-0.633-1.094-0.691-2.457-0.058-3.187 0.672-0.729 1.766-0.461 2.457 0.096-0.211-0.614-0.845-1.382-1.728-1.44 1.728-0.902 3.743-1.382 5.816-1.382 0.403 0 0.787 0.038 1.152 0.058 0.614 0.23 1.497 1.094 1.92 1.651 0 0 0.038-0.633-0.326-1.382 2.265 0.557 3.359 1.478 3.801 1.92 0.096 0.979 0.384 1.555 0.787 2.495-0.729-0.806-2.572-2.15-3.474-2.457 0 0-0.096 0.845-0.384 1.248-1.766-1.267-2.611-1.593-2.611-1.593-1.958 0.192-3.167 0.96-3.858 1.536l0.576 0.499c-1.152 0.346-1.92 1.363-1.92 1.363 0 0.038 1.037 0.173 1.037 0.173s-0.115 1.209 1.421 1.977c1.305 0.633 3.148-0.154 4.914 0.557-1.152-1.325-1.939-1.939-1.939-1.939s-0.461-0.096-0.787-0.096c-0.403 0-1.017 0.096-1.651-0.173-0.326-0.115-0.691-0.346-0.96-0.518 0 0 0.806-0.845 1.996-1.017 0 0 1.075 0.288 1.92 0.921 0.557-0.557 1.152-0.518 1.152-0.518s-0.576 0.557-0.403 1.19c0.845 0.749 1.766 1.824 1.766 1.824 0.921-0.518 2.956-0.403 3.379 0.096-0.518-0.691-1.305-1.248-1.881-1.728-0.058-0.269-0.729-1.152-0.806-1.248 0 0 0.614 0.211 1.152 0.672 0.154-0.23 0.461-0.461 0.845-0.557 0.403 0.346 0.499 0.864 0.461 0.96-0.173 0.23-0.384 0.326-0.384 0.326l0.979 1.075 0.096-0.787c2.284 3.244 3.532 7.026 1.939 11.767zM19.235 17.219v-1.67c0 0-0.749-0.23-1.555-0.864-1.612 0.23-3.551 1.862-3.551 1.862s0.672 1.248 1.382 2.611c1.267 0.134 3.148-1.44 3.724-1.939zM20.847 20.252c0 0-0.115-0.691-0.691-1.325l-1.248 0.038c0 0-1.708 1.44-2.726 1.478 0 0 0.576 1.075 0.864 1.612 0.576-0.115 1.555-0.576 1.977-1.037 0 0 0.269 0.864 0.211 1.881 0.576-0.365 1.363-1.248 1.612-2.649zM21.365 14.723c-0.633 0.518-1.152 0.845-1.152 0.845v1.67c0.461 0.499 0.902 0.921 1.248 1.67 0.633-1.113 0.48-2.783-0.096-4.185z"></path>
</symbol>
<symbol id="icon-airbnb" viewBox="0 0 101 32">
<title>airbnb</title>
<path d="M53.069 8.225c0-1.102-0.882-2.015-2.046-2.046-1.165 0-2.047 0.913-2.047 2.046s0.914 2.046 2.047 2.046c1.133 0 2.046-0.913 2.046-2.046zM44.631 12.349c0 0.189 0 0.504 0 0.504s-0.976-1.26-3.053-1.26c-3.432 0-6.108 2.613-6.108 6.234 0 3.589 2.644 6.235 6.108 6.235 2.109 0 3.053-1.292 3.053-1.292v0.536c0 0.252 0.189 0.441 0.441 0.441h2.55v-11.839c0 0-2.33 0-2.55 0-0.252 0-0.441 0.22-0.441 0.441zM44.631 19.938c-0.472 0.692-1.417 1.291-2.55 1.291-2.015 0-3.557-1.26-3.557-3.401s1.542-3.4 3.557-3.4c1.102 0 2.109 0.629 2.55 1.291v4.22zM49.512 23.747v-11.838h3.022v11.838h-3.022zM94.661 11.594c-2.077 0-3.053 1.26-3.053 1.26v-6.644h-3.023v17.538c0 0 2.33 0 2.55 0 0.252 0 0.441-0.221 0.441-0.441v-0.536c0 0 0.976 1.292 3.054 1.292 3.432 0 6.108-2.645 6.108-6.235s-2.676-6.234-6.077-6.234zM94.158 21.196c-1.165 0-2.078-0.598-2.55-1.291v-4.219c0.472-0.63 1.479-1.291 2.55-1.291 2.015 0 3.557 1.259 3.557 3.4s-1.542 3.4-3.557 3.4zM87.011 16.726c0-1.984-0.409-3.117-1.48-3.999-0.882-0.756-1.983-1.133-3.306-1.133-1.165 0-2.33 0.347-3.212 1.26v-0.504c0-0.22-0.188-0.441-0.441-0.441h-2.393v11.839h3.023v-8.25c0.598-0.692 1.542-1.164 2.455-1.164 1.7 0 2.331 0.787 2.331 2.739v6.707h3.022v-7.052zM68.844 11.594c-2.078 0-3.054 1.26-3.054 1.26v-6.644h-3.022v17.538c0 0 2.33 0 2.55 0 0.252 0 0.441-0.221 0.441-0.441v-0.536c0 0 0.976 1.292 3.054 1.292 3.432 0 6.108-2.645 6.108-6.235 0.031-3.589-2.645-6.234-6.077-6.234zM68.34 21.196c-1.164 0-2.077-0.598-2.55-1.291v-4.219c0.473-0.63 1.48-1.291 2.55-1.291 2.015 0 3.558 1.259 3.558 3.4s-1.543 3.4-3.558 3.4zM60.154 11.594c-0.945 0-2.172 0.598-2.74 1.26v-0.504c0-0.22-0.188-0.441-0.441-0.441-0.22 0-2.55 0-2.55 0v11.87h3.023v-8.281c1.574-1.795 4.093-0.944 4.093-0.944v-2.803c0 0-0.473-0.157-1.386-0.157zM28.763 22.676c-0.157-0.378-0.315-0.787-0.472-1.133-0.252-0.566-0.504-1.102-0.724-1.605l-0.031-0.032c-2.172-4.723-4.503-9.508-6.958-14.231l-0.095-0.189c-0.252-0.472-0.503-0.976-0.756-1.479-0.315-0.567-0.629-1.165-1.133-1.732-1.007-1.259-2.456-1.952-3.998-1.952-1.574 0-2.991 0.693-4.030 1.89-0.473 0.566-0.819 1.164-1.133 1.732-0.252 0.503-0.504 1.007-0.756 1.48l-0.095 0.188c-2.424 4.723-4.786 9.508-6.958 14.231l-0.031 0.063c-0.22 0.504-0.473 1.039-0.724 1.606-0.157 0.346-0.315 0.724-0.472 1.133-0.41 1.164-0.535 2.267-0.378 3.4 0.346 2.362 1.92 4.345 4.092 5.227 0.819 0.347 1.669 0.504 2.55 0.504 0.252 0 0.567-0.032 0.819-0.063 1.039-0.126 2.11-0.472 3.149-1.070 1.291-0.724 2.518-1.764 3.904-3.275 1.385 1.511 2.644 2.55 3.904 3.275 1.039 0.598 2.109 0.944 3.148 1.070 0.252 0.031 0.567 0.063 0.819 0.063 0.882 0 1.764-0.157 2.55-0.504 2.204-0.882 3.747-2.897 4.093-5.227 0.252-1.102 0.126-2.204-0.284-3.369zM14.563 24.314c-1.7-2.141-2.802-4.156-3.18-5.856-0.157-0.724-0.189-1.354-0.095-1.921 0.063-0.503 0.252-0.945 0.504-1.322 0.598-0.851 1.606-1.386 2.771-1.386s2.204 0.504 2.771 1.386c0.252 0.377 0.441 0.819 0.504 1.322 0.094 0.567 0.063 1.228-0.094 1.921-0.378 1.668-1.48 3.684-3.18 5.856zM27.125 25.794c-0.22 1.637-1.322 3.054-2.865 3.684-0.756 0.315-1.574 0.41-2.393 0.315-0.788-0.094-1.574-0.346-2.393-0.819-1.133-0.629-2.267-1.605-3.589-3.053 2.078-2.551 3.338-4.881 3.81-6.958 0.22-0.976 0.252-1.858 0.157-2.676-0.126-0.788-0.41-1.511-0.85-2.141-0.976-1.417-2.613-2.236-4.44-2.236s-3.463 0.851-4.439 2.236c-0.441 0.63-0.724 1.354-0.85 2.141-0.126 0.819-0.095 1.732 0.157 2.676 0.472 2.077 1.763 4.439 3.81 6.989-1.292 1.448-2.456 2.424-3.589 3.054-0.819 0.472-1.606 0.724-2.393 0.819-0.851 0.094-1.669-0.032-2.393-0.315-1.543-0.63-2.645-2.047-2.866-3.684-0.094-0.787-0.031-1.574 0.284-2.456 0.095-0.315 0.252-0.629 0.41-1.007 0.22-0.504 0.472-1.039 0.724-1.574l0.032-0.063c2.172-4.691 4.502-9.477 6.926-14.137l0.095-0.188c0.252-0.473 0.503-0.976 0.756-1.449 0.252-0.504 0.535-0.976 0.881-1.385 0.661-0.756 1.543-1.165 2.519-1.165s1.858 0.41 2.519 1.165c0.346 0.409 0.629 0.881 0.882 1.385 0.252 0.473 0.503 0.976 0.756 1.449l0.094 0.188c2.393 4.692 4.723 9.477 6.895 14.169v0.031c0.252 0.504 0.472 1.070 0.724 1.574 0.157 0.378 0.315 0.692 0.409 1.007 0.252 0.819 0.347 1.606 0.22 2.425v0z"></path>
</symbol>
<symbol id="icon-radio-four" viewBox="0 0 32 32">
<title>radio-four</title>
<path d="M24.297 22.331h-3.269v4.16h-5.874v-3.726s0-0.411-0.503-0.434h-8.457l0.046-0.069 0.023-3.36c0-0.503 0.251-1.234 0.549-1.646l8.96-12.023c0.297-0.411 0.96-0.731 1.463-0.731h3.794v13.006h3.269v4.823zM16 0c-8.823 0-16 7.177-16 16s7.177 16 16 16 16-7.177 16-16-7.177-16-16-16zM15.657 13.874c-1.28 0.023-2.286 1.074-2.263 2.354 0.023 1.097 0.846 2.011 1.943 2.217l0.823 0.137c-0.206 1.463-0.754 2.56-1.989 3.474 1.669-0.731 2.949-2.331 3.52-4.023 0.594-1.691 0.274-4.206-2.034-4.16z"></path>
</symbol>
</defs>
</svg>
